<svg width="40" height="33" viewBox="0 0 40 33" fill="none" xmlns="http://www.w3.org/2000/svg">
<path d="M12.565 32.5047C27.66 32.5047 35.9175 19.9972 35.9175 9.16966C35.9175 8.81966 35.9175 8.46466 35.9025 8.11466C37.5101 6.95088 38.8977 5.51004 40 3.85966C38.4983 4.52179 36.9069 4.95818 35.2775 5.15466C36.9938 4.12876 38.2793 2.51458 38.895 0.612163C37.2825 1.56747 35.5175 2.2381 33.6775 2.59466C32.4405 1.27722 30.8035 0.404457 29.0202 0.111556C27.2369 -0.181344 25.4068 0.121966 23.8133 0.974506C22.2199 1.82705 20.952 3.18123 20.2061 4.82731C19.4602 6.47339 19.2779 8.31949 19.6875 10.0797C16.4244 9.91604 13.232 9.06833 10.3176 7.59152C7.40317 6.11471 4.83171 4.04177 2.77 1.50716C1.72335 3.31487 1.40393 5.45316 1.87662 7.48783C2.3493 9.52249 3.57864 11.301 5.315 12.4622C4.01385 12.418 2.7413 12.0686 1.6 11.4422V11.5547C1.60224 13.4484 2.25827 15.2832 3.45718 16.7491C4.6561 18.2149 6.32437 19.2218 8.18 19.5997C7.47566 19.7937 6.74807 19.8904 6.0175 19.8872C5.50246 19.8887 4.98845 19.841 4.4825 19.7447C5.00697 21.3748 6.02818 22.8001 7.40312 23.8209C8.77805 24.8416 10.4378 25.4068 12.15 25.4372C9.24139 27.7217 5.6485 28.9607 1.95 28.9547C1.2983 28.9574 0.647058 28.9198 0 28.8422C3.75379 31.2353 8.11324 32.506 12.565 32.5047Z" fill="#D7D7D7"/>
</svg>
