<svg width="40" height="41" viewBox="0 0 40 41" fill="none" xmlns="http://www.w3.org/2000/svg">
<path d="M20 0.00292969C14.5725 0.00292969 13.89 0.0279297 11.7575 0.12293C9.625 0.22293 8.1725 0.55793 6.9 1.05293C5.56523 1.55498 4.35623 2.3425 3.3575 3.36043C2.34019 4.35967 1.55277 5.56853 1.05 6.90293C0.555 8.17293 0.2175 9.62793 0.12 11.7529C0.025 13.8904 0 14.5704 0 20.0054C0 25.4354 0.025 26.1154 0.12 28.2479C0.22 30.3779 0.555 31.8304 1.05 33.1029C1.5625 34.4179 2.245 35.5329 3.3575 36.6454C4.4675 37.7579 5.5825 38.4429 6.8975 38.9529C8.1725 39.4479 9.6225 39.7854 11.7525 39.8829C13.8875 39.9779 14.5675 40.0029 20 40.0029C25.4325 40.0029 26.11 39.9779 28.245 39.8829C30.3725 39.7829 31.83 39.4479 33.1025 38.9529C34.4364 38.4506 35.6445 37.6631 36.6425 36.6454C37.755 35.5329 38.4375 34.4179 38.95 33.1029C39.4425 31.8304 39.78 30.3779 39.88 28.2479C39.975 26.1154 40 25.4354 40 20.0029C40 14.5704 39.975 13.8904 39.88 11.7554C39.78 9.62793 39.4425 8.17293 38.95 6.90293C38.4473 5.56849 37.6599 4.35962 36.6425 3.36043C35.6441 2.34212 34.435 1.55454 33.1 1.05293C31.825 0.55793 30.37 0.22043 28.2425 0.12293C26.1075 0.0279297 25.43 0.00292969 19.995 0.00292969H20.0025H20ZM18.2075 3.60793H20.0025C25.3425 3.60793 25.975 3.62543 28.0825 3.72293C30.0325 3.81043 31.0925 4.13793 31.7975 4.41043C32.73 4.77293 33.3975 5.20793 34.0975 5.90793C34.7975 6.60793 35.23 7.27293 35.5925 8.20793C35.8675 8.91043 36.1925 9.97043 36.28 11.9204C36.3775 14.0279 36.3975 14.6604 36.3975 19.9979C36.3975 25.3354 36.3775 25.9704 36.28 28.0779C36.1925 30.0279 35.865 31.0854 35.5925 31.7904C35.2719 32.6588 34.7601 33.444 34.095 34.0879C33.395 34.7879 32.73 35.2204 31.795 35.5829C31.095 35.8579 30.035 36.1829 28.0825 36.2729C25.975 36.3679 25.3425 36.3904 20.0025 36.3904C14.6625 36.3904 14.0275 36.3679 11.92 36.2729C9.97 36.1829 8.9125 35.8579 8.2075 35.5829C7.33875 35.2627 6.55281 34.7519 5.9075 34.0879C5.24188 33.443 4.72931 32.6571 4.4075 31.7879C4.135 31.0854 3.8075 30.0254 3.72 28.0754C3.625 25.9679 3.605 25.3354 3.605 19.9929C3.605 14.6529 3.625 14.0229 3.72 11.9154C3.81 9.96543 4.135 8.90543 4.41 8.20043C4.7725 7.26793 5.2075 6.60043 5.9075 5.90043C6.6075 5.20043 7.2725 4.76793 8.2075 4.40543C8.9125 4.13043 9.97 3.80543 11.92 3.71543C13.765 3.63043 14.48 3.60543 18.2075 3.60293V3.60793ZM30.6775 6.92793C30.3623 6.92793 30.0502 6.99001 29.7591 7.11062C29.4679 7.23123 29.2033 7.40801 28.9804 7.63087C28.7576 7.85373 28.5808 8.11831 28.4602 8.40949C28.3396 8.70067 28.2775 9.01276 28.2775 9.32793C28.2775 9.6431 28.3396 9.95519 28.4602 10.2464C28.5808 10.5376 28.7576 10.8021 28.9804 11.025C29.2033 11.2478 29.4679 11.4246 29.7591 11.5452C30.0502 11.6659 30.3623 11.7279 30.6775 11.7279C31.314 11.7279 31.9245 11.4751 32.3746 11.025C32.8246 10.5749 33.0775 9.96445 33.0775 9.32793C33.0775 8.69141 32.8246 8.08096 32.3746 7.63087C31.9245 7.18079 31.314 6.92793 30.6775 6.92793ZM20.0025 9.73293C18.6402 9.71167 17.2872 9.96164 16.0224 10.4683C14.7577 10.9749 13.6063 11.7281 12.6354 12.684C11.6645 13.6399 10.8934 14.7793 10.3671 16.0361C9.8408 17.2928 9.56975 18.6417 9.56975 20.0042C9.56975 21.3667 9.8408 22.7155 10.3671 23.9723C10.8934 25.229 11.6645 26.3685 12.6354 27.3244C13.6063 28.2803 14.7577 29.0334 16.0224 29.5401C17.2872 30.0467 18.6402 30.2967 20.0025 30.2754C22.6989 30.2334 25.2705 29.1327 27.1624 27.2111C29.0544 25.2894 30.1148 22.7009 30.1147 20.0042C30.1148 17.3075 29.0544 14.719 27.1624 12.7973C25.2705 10.8756 22.6989 9.775 20.0025 9.73293ZM20.0025 13.3354C21.7708 13.3354 23.4667 14.0379 24.7171 15.2883C25.9675 16.5387 26.67 18.2346 26.67 20.0029C26.67 21.7713 25.9675 23.4672 24.7171 24.7176C23.4667 25.968 21.7708 26.6704 20.0025 26.6704C18.2342 26.6704 16.5383 25.968 15.2879 24.7176C14.0375 23.4672 13.335 21.7713 13.335 20.0029C13.335 18.2346 14.0375 16.5387 15.2879 15.2883C16.5383 14.0379 18.2342 13.3354 20.0025 13.3354Z" fill="#D7D7D7"/>
</svg>
